<svg viewBox="0 0 1000 700" xmlns="http://www.w3.org/2000/svg" role="img" font-family="'Helvetica Neue', Arial, sans-serif">
  <title>Meeting Cost Meter — architecture and data flow</title>
  <desc>The Meeting Cost Meter app runs inside the Zoom client as a React app via the Zoom Apps SDK. It uses Zoom OAuth 2.0 for install and identity. The presenter's individual configuration (names and hourly opportunity-cost values) is sent over HTTPS to a Node/Express server on Railway and stored as a per-user AES-256-GCM encrypted file on a persistent volume. The live aggregate cost total is computed and rendered onto the presenter's camera entirely inside the Zoom client and is never sent to the server. A GitHub Pages site serves the static legal and support pages.</desc>

  <defs>
    <marker id="ah-navy" markerWidth="9" markerHeight="9" refX="7" refY="3" orient="auto-start-reverse"><path d="M0,0 L7,3 L0,6 Z" fill="#234262"/></marker>
    <marker id="ah-teal" markerWidth="9" markerHeight="9" refX="7" refY="3" orient="auto-start-reverse"><path d="M0,0 L7,3 L0,6 Z" fill="#07a496"/></marker>
    <marker id="ah-gray" markerWidth="9" markerHeight="9" refX="7" refY="3" orient="auto-start-reverse"><path d="M0,0 L7,3 L0,6 Z" fill="#8a94a0"/></marker>
    <style>
      .ztitle{font-weight:700;font-size:12.5px;letter-spacing:.04em}
      .zsub{font-size:10.5px}
      .btitle{font-weight:700;font-size:12.5px;fill:#234262}
      .bbody{font-size:11px;fill:#3a4550}
      .alabel{font-size:9.5px;fill:#5b6f73}
      .lz{font-size:11px;fill:#3a4550}
    </style>
  </defs>

  <rect width="1000" height="700" fill="#ffffff"/>

  <!-- header -->
  <text x="500" y="27" text-anchor="middle" font-size="21" font-weight="700" fill="#234262">Meeting Cost Meter — Architecture &amp; Data Flow</text>
  <text x="500" y="46" text-anchor="middle" font-size="12.5" fill="#5b6f73">Services that interact with Zoom, and how individual vs. aggregate data flows</text>

  <!-- config arc label -->
  <rect x="296" y="54" width="488" height="17" rx="4" fill="#ffffff"/>
  <text x="540" y="66" text-anchor="middle" font-size="10" fill="#234262" font-weight="700">HTTPS · save / load encrypted config — /api/rates (signed Zoom app context)</text>

  <!-- zones -->
  <rect x="18" y="86" width="300" height="458" rx="12" fill="#f2f5f1" stroke="#c8d2c4"/>
  <text x="168" y="110" text-anchor="middle" class="ztitle" fill="#3a5a3a">END USER · ZOOM CLIENT</text>
  <text x="168" y="126" text-anchor="middle" class="zsub" fill="#6b7d6b">React app, in-meeting (Zoom Apps SDK)</text>

  <rect x="346" y="86" width="300" height="458" rx="12" fill="#e9f2fb" stroke="#9cc4e6"/>
  <text x="496" y="110" text-anchor="middle" class="ztitle" fill="#0a5a8c">ZOOM PLATFORM</text>

  <rect x="674" y="86" width="308" height="458" rx="12" fill="#e7f2f0" stroke="#9fcec9"/>
  <text x="828" y="110" text-anchor="middle" class="ztitle" fill="#055">PROVIDER INFRASTRUCTURE</text>
  <text x="828" y="126" text-anchor="middle" class="zsub" fill="#4a7a74">Railway · GitHub</text>

  <!-- boxes: zone A -->
  <rect x="38" y="150" width="260" height="92" rx="8" fill="#ffffff" stroke="#234262"/>
  <text x="52" y="174" class="btitle">Side panel (in-meeting)</text>
  <text x="52" y="194" class="bbody">Presenter sets each person's hourly</text>
  <text x="52" y="210" class="bbody">opportunity cost; the live total is</text>
  <text x="52" y="226" class="bbody">computed in the Zoom client.</text>

  <rect x="38" y="300" width="260" height="92" rx="8" fill="#ffffff" stroke="#234262"/>
  <text x="52" y="324" class="btitle">Camera overlay</text>
  <text x="52" y="344" class="bbody">Live cost meter drawn onto the</text>
  <text x="52" y="360" class="bbody">presenter's camera — all participants</text>
  <text x="52" y="376" class="bbody">see it natively.</text>
  <text x="168" y="410" text-anchor="middle" font-style="italic" class="alabel">Aggregate only — no names or per-person values</text>

  <!-- boxes: zone B -->
  <rect x="366" y="150" width="260" height="120" rx="8" fill="#ffffff" stroke="#234262"/>
  <text x="380" y="174" class="btitle">Zoom Apps SDK</text>
  <text x="380" y="194" class="bbody">In-client JS bridge:</text>
  <text x="380" y="210" class="bbody">• meeting context &amp; participant count</text>
  <text x="380" y="226" class="bbody">• camera rendering</text>
  <text x="380" y="242" class="bbody">&#160;&#160;(runRenderingContext / drawWebView)</text>

  <rect x="366" y="330" width="260" height="92" rx="8" fill="#ffffff" stroke="#234262"/>
  <text x="380" y="354" class="btitle">Zoom OAuth 2.0</text>
  <text x="380" y="374" class="bbody">zoom.us/oauth — app install &amp;</text>
  <text x="380" y="390" class="bbody">identity (auth code → token).</text>

  <!-- boxes: zone C -->
  <rect x="694" y="150" width="268" height="92" rx="8" fill="#ffffff" stroke="#234262"/>
  <text x="708" y="174" class="btitle">Node / Express server · Railway</text>
  <text x="708" y="194" class="bbody">Serves the app; /api/rates,</text>
  <text x="708" y="210" class="bbody">/api/health, /auth. Verifies the</text>
  <text x="708" y="226" class="bbody">signed Zoom app context.</text>

  <rect x="694" y="266" width="268" height="88" rx="8" fill="#ffffff" stroke="#234262"/>
  <text x="708" y="290" class="btitle">Encrypted config store</text>
  <text x="708" y="310" class="bbody">One AES-256-GCM JSON file per</text>
  <text x="708" y="326" class="bbody">user on a Railway Volume.</text>
  <text x="708" y="342" class="bbody">Plaintext never touches disk.</text>

  <rect x="694" y="378" width="268" height="74" rx="8" fill="#ffffff" stroke="#234262"/>
  <text x="708" y="402" class="btitle">GitHub Pages</text>
  <text x="708" y="422" class="bbody">Static legal/support site — the</text>
  <text x="708" y="438" class="bbody">Privacy / Terms / Support / Docs URLs.</text>

  <rect x="694" y="476" width="268" height="50" rx="8" fill="#ffffff" stroke="#234262"/>
  <text x="708" y="498" class="btitle">GitHub → Railway</text>
  <text x="708" y="516" class="bbody">Auto-deploy on merge to main.</text>

  <!-- arrows -->
  <!-- 1: config save/load (private, navy) -->
  <polyline points="298,180 298,74 828,74 828,150" fill="none" stroke="#234262" stroke-width="2" marker-start="url(#ah-navy)" marker-end="url(#ah-navy)"/>
  <!-- 2: SDK calls (gray) -->
  <line x1="298" y1="212" x2="366" y2="212" stroke="#8a94a0" stroke-width="1.6" marker-start="url(#ah-gray)" marker-end="url(#ah-gray)"/>
  <text x="332" y="206" text-anchor="middle" class="alabel">SDK</text>
  <!-- 3: camera overlay render (aggregate, teal dashed) -->
  <line x1="298" y1="345" x2="366" y2="250" stroke="#07a496" stroke-width="2" stroke-dasharray="6 4" marker-start="url(#ah-teal)" marker-end="url(#ah-teal)"/>
  <rect x="300" y="284" width="64" height="15" rx="3" fill="#ffffff"/>
  <text x="332" y="296" text-anchor="middle" class="alabel" fill="#07a496">render</text>
  <!-- 4: OAuth (navy) -->
  <line x1="626" y1="377" x2="694" y2="200" stroke="#234262" stroke-width="2" marker-start="url(#ah-navy)" marker-end="url(#ah-navy)"/>
  <rect x="608" y="282" width="104" height="15" rx="3" fill="#ffffff"/>
  <text x="660" y="294" text-anchor="middle" class="alabel">OAuth authorize / token</text>
  <!-- 5: encrypt + read/write (navy) -->
  <line x1="828" y1="242" x2="828" y2="266" stroke="#234262" stroke-width="2" marker-start="url(#ah-navy)" marker-end="url(#ah-navy)"/>
  <text x="840" y="258" class="alabel">encrypt · R/W</text>
  <!-- 6: deploy (gray dashed, right rail) -->
  <path d="M 968,488 C 990,410 990,270 968,202" fill="none" stroke="#8a94a0" stroke-width="1.4" stroke-dasharray="5 4" marker-end="url(#ah-gray)"/>
  <text transform="rotate(-90 986 345)" x="986" y="345" text-anchor="middle" class="alabel">deploy on merge</text>

  <!-- legend -->
  <rect x="18" y="560" width="964" height="124" rx="10" fill="#f7f9f9" stroke="#dfe6e3"/>
  <text x="36" y="584" font-size="12" font-weight="700" fill="#234262">Legend — data flows</text>

  <line x1="36" y1="606" x2="76" y2="606" stroke="#234262" stroke-width="2.4"/>
  <text x="86" y="610" class="lz"><tspan font-weight="700">Individual config</tspan> (names + opportunity-cost values) — encrypted, stored on our server.</text>

  <line x1="36" y1="630" x2="76" y2="630" stroke="#07a496" stroke-width="2.4" stroke-dasharray="6 4"/>
  <text x="86" y="634" class="lz"><tspan font-weight="700">Aggregate cost total</tspan> — computed and shown inside the Zoom client; never sent to our server.</text>

  <line x1="36" y1="654" x2="76" y2="654" stroke="#8a94a0" stroke-width="2"/>
  <text x="86" y="658" class="lz"><tspan font-weight="700">Zoom Apps SDK / platform calls</tspan> (in-client).</text>

  <text x="36" y="678" font-size="10.5" fill="#5b6f73">No HR / payroll / SSO / directory integration. No database. Providers: Railway, GitHub, Zoom — no other processors, analytics, or trackers.</text>
</svg>
